<?xml version="1.0" encoding="UTF-8"?>
<!DOCTYPE svg PUBLIC "-//W3C//DTD SVG 1.1//EN" "http://www.w3.org/Graphics/SVG/1.1/DTD/svg11.dtd">
<svg xmlns="http://www.w3.org/2000/svg" version="1.1" width="512px" height="512px" style="shape-rendering:geometricPrecision; text-rendering:geometricPrecision; image-rendering:optimizeQuality; fill-rule:evenodd; clip-rule:evenodd" xmlns:xlink="http://www.w3.org/1999/xlink">
<g><path style="opacity:0.968" fill="#000000" d="M -0.5,83.5 C 26.1667,83.5 52.8333,83.5 79.5,83.5C 79.5,189.833 79.5,296.167 79.5,402.5C 67.5,402.5 55.5,402.5 43.5,402.5C 43.5,392.833 43.5,383.167 43.5,373.5C 38.8333,373.5 34.1667,373.5 29.5,373.5C 29.5,346.167 29.5,318.833 29.5,291.5C 34.1667,291.5 38.8333,291.5 43.5,291.5C 43.5,271.833 43.5,252.167 43.5,232.5C 38.8333,232.5 34.1667,232.5 29.5,232.5C 29.5,205.167 29.5,177.833 29.5,150.5C 34.1667,150.5 38.8333,150.5 43.5,150.5C 43.5,139.833 43.5,129.167 43.5,118.5C 28.8333,118.5 14.1667,118.5 -0.5,118.5C -0.5,106.833 -0.5,95.1667 -0.5,83.5 Z"/></g>
<g><path style="opacity:0.98" fill="#000000" d="M 511.5,184.5 C 511.5,249.5 511.5,314.5 511.5,379.5C 507.038,391.622 498.371,398.622 485.5,400.5C 484.502,409.475 484.168,418.475 484.5,427.5C 425.5,427.5 366.5,427.5 307.5,427.5C 307.5,418.5 307.5,409.5 307.5,400.5C 302.167,400.5 296.833,400.5 291.5,400.5C 291.5,409.5 291.5,418.5 291.5,427.5C 232.5,427.5 173.5,427.5 114.5,427.5C 114.5,418.5 114.5,409.5 114.5,400.5C 109.167,400.5 103.833,400.5 98.5,400.5C 98.5,321.833 98.5,243.167 98.5,164.5C 229.5,164.333 360.5,164.5 491.5,165C 501.35,168.351 508.017,174.851 511.5,184.5 Z M 391.5,210.5 C 429.126,208.719 455.96,224.719 472,258.5C 483.476,294.106 474.976,323.939 446.5,348C 416.161,368.656 385.827,368.656 355.5,348C 326.721,324.062 318.221,294.229 330,258.5C 341.926,231.396 362.426,215.396 391.5,210.5 Z M 162.5,253.5 C 169.361,252.965 176.028,253.798 182.5,256C 186.358,258.358 189.358,261.525 191.5,265.5C 189.489,267.341 187.322,269.008 185,270.5C 182.551,269.056 180.385,267.222 178.5,265C 161.957,259.518 152.624,265.518 150.5,283C 153.342,302.529 163.676,308.196 181.5,300C 184.962,297.761 186.295,294.594 185.5,290.5C 181.5,290.5 177.5,290.5 173.5,290.5C 173.5,287.833 173.5,285.167 173.5,282.5C 180.5,282.5 187.5,282.5 194.5,282.5C 194.5,292.833 194.5,303.167 194.5,313.5C 191.5,313.5 188.5,313.5 185.5,313.5C 185.663,311.143 185.497,308.81 185,306.5C 173.118,315.834 161.284,315.667 149.5,306C 140.645,296.326 138.145,285.159 142,272.5C 145.841,262.822 152.674,256.488 162.5,253.5 Z M 205.5,253.5 C 218.833,253.5 232.167,253.5 245.5,253.5C 245.5,256.5 245.5,259.5 245.5,262.5C 235.833,262.5 226.167,262.5 216.5,262.5C 216.5,268.167 216.5,273.833 216.5,279.5C 224.5,279.5 232.5,279.5 240.5,279.5C 240.5,282.5 240.5,285.5 240.5,288.5C 232.5,288.5 224.5,288.5 216.5,288.5C 216.5,296.833 216.5,305.167 216.5,313.5C 212.833,313.5 209.167,313.5 205.5,313.5C 205.5,293.5 205.5,273.5 205.5,253.5 Z M 248.5,254.5 C 252.351,253.191 256.351,253.191 260.5,254.5C 265.144,261.802 270.144,268.802 275.5,275.5C 280.857,268.633 285.857,261.466 290.5,254C 294.211,253.175 297.878,253.341 301.5,254.5C 294.456,264.091 287.79,273.924 281.5,284C 287.762,293.931 294.428,303.598 301.5,313C 297.833,313.667 294.167,313.667 290.5,313C 285.377,305.921 280.377,298.754 275.5,291.5C 270.636,298.717 265.636,305.883 260.5,313C 256.833,313.667 253.167,313.667 249.5,313C 256.172,303.316 262.839,293.65 269.5,284C 263.04,273.719 256.04,263.885 248.5,254.5 Z M 128.5,398.5 C 131.167,398.5 133.833,398.5 136.5,398.5C 136.5,404.833 136.5,411.167 136.5,417.5C 133.833,417.5 131.167,417.5 128.5,417.5C 128.5,411.167 128.5,404.833 128.5,398.5 Z M 146.5,398.5 C 148.833,398.5 151.167,398.5 153.5,398.5C 153.5,404.833 153.5,411.167 153.5,417.5C 151.167,417.5 148.833,417.5 146.5,417.5C 146.5,411.167 146.5,404.833 146.5,398.5 Z M 163.5,398.5 C 166.167,398.5 168.833,398.5 171.5,398.5C 171.5,404.833 171.5,411.167 171.5,417.5C 168.833,417.5 166.167,417.5 163.5,417.5C 163.5,411.167 163.5,404.833 163.5,398.5 Z M 181.5,398.5 C 184.167,398.5 186.833,398.5 189.5,398.5C 189.5,404.833 189.5,411.167 189.5,417.5C 186.833,417.5 184.167,417.5 181.5,417.5C 181.5,411.167 181.5,404.833 181.5,398.5 Z M 198.5,398.5 C 201.167,398.5 203.833,398.5 206.5,398.5C 206.5,404.833 206.5,411.167 206.5,417.5C 203.833,417.5 201.167,417.5 198.5,417.5C 198.5,411.167 198.5,404.833 198.5,398.5 Z M 216.5,398.5 C 219.167,398.5 221.833,398.5 224.5,398.5C 224.5,404.833 224.5,411.167 224.5,417.5C 221.833,417.5 219.167,417.5 216.5,417.5C 216.5,411.167 216.5,404.833 216.5,398.5 Z M 234.5,398.5 C 236.833,398.5 239.167,398.5 241.5,398.5C 241.5,404.833 241.5,411.167 241.5,417.5C 239.167,417.5 236.833,417.5 234.5,417.5C 234.5,411.167 234.5,404.833 234.5,398.5 Z M 251.5,398.5 C 254.167,398.5 256.833,398.5 259.5,398.5C 259.5,404.833 259.5,411.167 259.5,417.5C 256.833,417.5 254.167,417.5 251.5,417.5C 251.5,411.167 251.5,404.833 251.5,398.5 Z M 269.5,398.5 C 271.833,398.5 274.167,398.5 276.5,398.5C 276.5,404.833 276.5,411.167 276.5,417.5C 274.167,417.5 271.833,417.5 269.5,417.5C 269.5,411.167 269.5,404.833 269.5,398.5 Z M 321.5,398.5 C 324.167,398.5 326.833,398.5 329.5,398.5C 329.5,404.833 329.5,411.167 329.5,417.5C 326.833,417.5 324.167,417.5 321.5,417.5C 321.5,411.167 321.5,404.833 321.5,398.5 Z M 339.5,398.5 C 341.833,398.5 344.167,398.5 346.5,398.5C 346.5,404.833 346.5,411.167 346.5,417.5C 344.167,417.5 341.833,417.5 339.5,417.5C 339.5,411.167 339.5,404.833 339.5,398.5 Z M 356.5,398.5 C 359.167,398.5 361.833,398.5 364.5,398.5C 364.5,404.833 364.5,411.167 364.5,417.5C 361.833,417.5 359.167,417.5 356.5,417.5C 356.5,411.167 356.5,404.833 356.5,398.5 Z M 374.5,398.5 C 377.167,398.5 379.833,398.5 382.5,398.5C 382.5,404.833 382.5,411.167 382.5,417.5C 379.833,417.5 377.167,417.5 374.5,417.5C 374.5,411.167 374.5,404.833 374.5,398.5 Z M 391.5,398.5 C 394.167,398.5 396.833,398.5 399.5,398.5C 399.5,404.833 399.5,411.167 399.5,417.5C 396.833,417.5 394.167,417.5 391.5,417.5C 391.5,411.167 391.5,404.833 391.5,398.5 Z M 409.5,398.5 C 412.167,398.5 414.833,398.5 417.5,398.5C 417.5,404.833 417.5,411.167 417.5,417.5C 414.833,417.5 412.167,417.5 409.5,417.5C 409.5,411.167 409.5,404.833 409.5,398.5 Z M 426.5,398.5 C 429.167,398.5 431.833,398.5 434.5,398.5C 434.5,404.833 434.5,411.167 434.5,417.5C 431.833,417.5 429.167,417.5 426.5,417.5C 426.5,411.167 426.5,404.833 426.5,398.5 Z M 444.5,398.5 C 447.167,398.5 449.833,398.5 452.5,398.5C 452.5,404.833 452.5,411.167 452.5,417.5C 449.833,417.5 447.167,417.5 444.5,417.5C 444.5,411.167 444.5,404.833 444.5,398.5 Z M 462.5,398.5 C 464.833,398.5 467.167,398.5 469.5,398.5C 469.5,404.833 469.5,411.167 469.5,417.5C 467.167,417.5 464.833,417.5 462.5,417.5C 462.5,411.167 462.5,404.833 462.5,398.5 Z"/></g>
<g><path style="opacity:0.963" fill="#000000" d="M 378.5,314.5 C 373.323,319.515 368.656,325.015 364.5,331C 362.097,331.63 360.263,330.797 359,328.5C 350.464,319.263 344.964,308.43 342.5,296C 342.759,294.739 343.426,293.739 344.5,293C 351.833,289 359.167,285 366.5,281C 358.566,279.178 350.566,277.678 342.5,276.5C 345.265,262.133 352.265,250.3 363.5,241C 364.833,240.333 366.167,240.333 367.5,241C 374.528,245.178 381.528,249.345 388.5,253.5C 386.629,246.223 383.962,239.223 380.5,232.5C 380.709,231.914 381.043,231.414 381.5,231C 395.562,226.233 409.562,226.4 423.5,231.5C 423.586,241.225 423.42,250.892 423,260.5C 428.008,253.997 433.174,247.664 438.5,241.5C 451.041,251.254 457.707,263.921 458.5,279.5C 451.153,284.175 443.486,288.342 435.5,292C 443.347,294.088 451.347,295.755 459.5,297C 456.432,311.984 448.932,324.15 437,333.5C 429.07,329.23 421.403,324.564 414,319.5C 415.572,327.047 418.072,334.38 421.5,341.5C 407.53,346.83 393.53,346.83 379.5,341.5C 378.502,332.525 378.168,323.525 378.5,314.5 Z"/></g>
</svg>
